<svg width="40" height="40" viewBox="0 0 40 40" fill="none" xmlns="http://www.w3.org/2000/svg">
<path d="M32.5783 29.9217C32.7531 30.0959 32.8918 30.3029 32.9865 30.5308C33.0811 30.7587 33.1298 31.0031 33.1298 31.2498C33.1298 31.4966 33.0811 31.741 32.9865 31.9689C32.8918 32.1968 32.7531 32.4038 32.5783 32.578C32.2245 32.9272 31.7474 33.123 31.2502 33.123C30.7531 33.123 30.2759 32.9272 29.9221 32.578L20.0002 22.6561L10.0783 32.578C9.72451 32.9272 9.24736 33.123 8.75021 33.123C8.25306 33.123 7.77591 32.9272 7.42208 32.578C7.24728 32.4038 7.10859 32.1968 7.01396 31.9689C6.91932 31.741 6.87061 31.4966 6.87061 31.2498C6.87061 31.0031 6.91932 30.7587 7.01396 30.5308C7.10859 30.3029 7.24728 30.0959 7.42208 29.9217L17.344 19.9998L7.42208 10.078C7.06984 9.72572 6.87196 9.24798 6.87196 8.74983C6.87196 8.50318 6.92054 8.25894 7.01493 8.03106C7.10932 7.80318 7.24767 7.59612 7.42208 7.42171C7.5965 7.2473 7.80355 7.10895 8.03143 7.01456C8.25931 6.92016 8.50355 6.87158 8.75021 6.87158C9.24835 6.87158 9.72609 7.06947 10.0783 7.42171L20.0002 17.3436L29.9221 7.42171C30.2743 7.06947 30.7521 6.87158 31.2502 6.87158C31.7484 6.87158 32.2261 7.06947 32.5783 7.42171C32.9306 7.77395 33.1285 8.25169 33.1285 8.74983C33.1285 9.24798 32.9306 9.72572 32.5783 10.078L22.6565 19.9998L32.5783 29.9217Z" fill="black"/>
</svg>
