<svg width="23" height="23" viewBox="0 0 23 23" fill="none" xmlns="http://www.w3.org/2000/svg">
<path d="M6.70841 11.5001C6.70841 12.0272 7.13966 12.4584 7.66675 12.4584H15.3334C15.8605 12.4584 16.2917 12.0272 16.2917 11.5001C16.2917 10.973 15.8605 10.5417 15.3334 10.5417H7.66675C7.13966 10.5417 6.70841 10.973 6.70841 11.5001ZM11.5001 1.91675C6.21008 1.91675 1.91675 6.21008 1.91675 11.5001C1.91675 16.7901 6.21008 21.0834 11.5001 21.0834C16.7901 21.0834 21.0834 16.7901 21.0834 11.5001C21.0834 6.21008 16.7901 1.91675 11.5001 1.91675ZM11.5001 19.1667C7.27383 19.1667 3.83341 15.7263 3.83341 11.5001C3.83341 7.27383 7.27383 3.83341 11.5001 3.83341C15.7263 3.83341 19.1667 7.27383 19.1667 11.5001C19.1667 15.7263 15.7263 19.1667 11.5001 19.1667Z" fill="white"/>
</svg>
