<svg width="23" height="23" viewBox="0 0 23 23" fill="none" xmlns="http://www.w3.org/2000/svg">
<path d="M3.91667 21.6698C3.38958 21.6698 2.93821 21.482 2.56254 21.1063C2.18751 20.7313 2 20.2802 2 19.7531V6.33646C2 5.80937 2.18751 5.358 2.56254 4.98233C2.93821 4.60731 3.38958 4.41979 3.91667 4.41979H12.4698L10.5531 6.33646H3.91667V19.7531H17.3333V13.0927L19.25 11.176V19.7531C19.25 20.2802 19.0625 20.7313 18.6875 21.1063C18.3118 21.482 17.8604 21.6698 17.3333 21.6698H3.91667ZM14.626 4.97083L15.9917 6.3125L9.66667 12.6375V14.0031H11.0083L17.3573 7.65417L18.7229 8.99583L12.374 15.3448C12.1983 15.5205 11.9948 15.6604 11.7635 15.7645C11.5316 15.868 11.2878 15.9198 11.0323 15.9198H8.70833C8.43681 15.9198 8.20936 15.8281 8.026 15.6447C7.842 15.4607 7.75 15.233 7.75 14.9615V12.6375C7.75 12.3819 7.79792 12.1382 7.89375 11.9063C7.98958 11.675 8.12535 11.4715 8.30104 11.2958L14.626 4.97083ZM18.7229 8.99583L14.626 4.97083L17.0219 2.575C17.4052 2.19167 17.8646 2 18.4 2C18.9347 2 19.3858 2.19167 19.7531 2.575L21.0948 3.94062C21.4622 4.30799 21.6458 4.75521 21.6458 5.28229C21.6458 5.80937 21.4622 6.2566 21.0948 6.62396L18.7229 8.99583Z" fill="white"/>
</svg>
