<svg width="24" height="25" viewBox="0 0 24 25" fill="none" xmlns="http://www.w3.org/2000/svg">
<g clip-path="url(#clip0_127_2301)">
<path fill-rule="evenodd" clip-rule="evenodd" d="M18.0406 7.84801C18.3462 7.59351 18.7403 7.47077 19.1364 7.50677C19.5324 7.54278 19.8979 7.73458 20.1526 8.04001L23.2771 11.79C23.5205 12.0968 23.6343 12.4865 23.5942 12.8761C23.554 13.2656 23.3632 13.624 23.0623 13.8747C22.7615 14.1254 22.3746 14.2485 21.9842 14.2177C21.5938 14.1869 21.231 14.0047 20.9731 13.71L17.8486 9.96001C17.5941 9.65443 17.4714 9.2603 17.5074 8.86426C17.5434 8.46822 17.7352 8.10268 18.0406 7.84801Z" fill="black"/>
<path fill-rule="evenodd" clip-rule="evenodd" d="M18.0405 17.652C17.7349 17.3975 17.5428 17.0321 17.5065 16.6361C17.4702 16.24 17.5927 15.8458 17.847 15.54L20.973 11.79C21.0973 11.6333 21.2517 11.5031 21.4271 11.407C21.6025 11.3108 21.7954 11.2507 21.9944 11.2302C22.1933 11.2098 22.3944 11.2293 22.5857 11.2876C22.777 11.346 22.9547 11.442 23.1083 11.57C23.262 11.6981 23.3885 11.8555 23.4804 12.0332C23.5723 12.2109 23.6277 12.4051 23.6434 12.6045C23.6591 12.8039 23.6348 13.0044 23.5719 13.1943C23.509 13.3841 23.4087 13.5595 23.277 13.71L20.1525 17.46C19.8979 17.7654 19.5323 17.9572 19.1363 17.9932C18.7402 18.0292 18.3461 17.9065 18.0405 17.652Z" fill="black"/>
<path fill-rule="evenodd" clip-rule="evenodd" d="M21.75 12.75C21.75 13.1478 21.592 13.5294 21.3107 13.8107C21.0294 14.092 20.6478 14.25 20.25 14.25H10.5C10.1022 14.25 9.72064 14.092 9.43934 13.8107C9.15804 13.5294 9 13.1478 9 12.75C9 12.3522 9.15804 11.9706 9.43934 11.6893C9.72064 11.408 10.1022 11.25 10.5 11.25H20.25C20.6478 11.25 21.0294 11.408 21.3107 11.6893C21.592 11.9706 21.75 12.3522 21.75 12.75ZM0 2.25C0 1.85218 0.158035 1.47064 0.43934 1.18934C0.720644 0.908035 1.10218 0.75 1.5 0.75H15C15.3978 0.75 15.7794 0.908035 16.0607 1.18934C16.342 1.47064 16.5 1.85218 16.5 2.25C16.5 2.64782 16.342 3.02936 16.0607 3.31066C15.7794 3.59196 15.3978 3.75 15 3.75H1.5C1.10218 3.75 0.720644 3.59196 0.43934 3.31066C0.158035 3.02936 0 2.64782 0 2.25ZM0 23.25C0 22.8522 0.158035 22.4706 0.43934 22.1893C0.720644 21.908 1.10218 21.75 1.5 21.75H15C15.3978 21.75 15.7794 21.908 16.0607 22.1893C16.342 22.4706 16.5 22.8522 16.5 23.25C16.5 23.6478 16.342 24.0294 16.0607 24.3107C15.7794 24.592 15.3978 24.75 15 24.75H1.5C1.10218 24.75 0.720644 24.592 0.43934 24.3107C0.158035 24.0294 0 23.6478 0 23.25Z" fill="black"/>
<path fill-rule="evenodd" clip-rule="evenodd" d="M15 0.75C15.3978 0.75 15.7794 0.908035 16.0607 1.18934C16.342 1.47064 16.5 1.85218 16.5 2.25V8.25C16.5 8.64782 16.342 9.02936 16.0607 9.31066C15.7794 9.59196 15.3978 9.75 15 9.75C14.6022 9.75 14.2206 9.59196 13.9393 9.31066C13.658 9.02936 13.5 8.64782 13.5 8.25V2.25C13.5 1.85218 13.658 1.47064 13.9393 1.18934C14.2206 0.908035 14.6022 0.75 15 0.75ZM15 15.75C15.3978 15.75 15.7794 15.908 16.0607 16.1893C16.342 16.4706 16.5 16.8522 16.5 17.25V23.25C16.5 23.6478 16.342 24.0294 16.0607 24.3107C15.7794 24.592 15.3978 24.75 15 24.75C14.6022 24.75 14.2206 24.592 13.9393 24.3107C13.658 24.0294 13.5 23.6478 13.5 23.25V17.25C13.5 16.8522 13.658 16.4706 13.9393 16.1893C14.2206 15.908 14.6022 15.75 15 15.75ZM1.5 0.75C1.89782 0.75 2.27936 0.908035 2.56066 1.18934C2.84196 1.47064 3 1.85218 3 2.25V23.25C3 23.6478 2.84196 24.0294 2.56066 24.3107C2.27936 24.592 1.89782 24.75 1.5 24.75C1.10218 24.75 0.720644 24.592 0.43934 24.3107C0.158035 24.0294 0 23.6478 0 23.25V2.25C0 1.85218 0.158035 1.47064 0.43934 1.18934C0.720644 0.908035 1.10218 0.75 1.5 0.75Z" fill="black"/>
</g>
<defs>
<clipPath id="clip0_127_2301">
<rect width="24" height="25" fill="white"/>
</clipPath>
</defs>
</svg>
